<mxfile host="app.diagrams.net" modified="2020-11-03T01:29:38.806Z" agent="5.0 (Macintosh; Intel Mac OS X 10_15_7) AppleWebKit/537.36 (KHTML, like Gecko) Chrome/86.0.4240.111 Safari/537.36" etag="eSQv2CI-pc0H30XSnL64" version="13.8.8" type="github" pages="5">
  <diagram id="h-QXYd1HctZo2Xr5YikN" name="local">
    <mxGraphModel dx="1079" dy="581" grid="1" gridSize="10" guides="1" tooltips="1" connect="1" arrows="1" fold="1" page="1" pageScale="1" pageWidth="1169" pageHeight="827" math="0" shadow="0">
      <root>
        <mxCell id="0" />
        <mxCell id="1" parent="0" />
        <mxCell id="xguwrIu2RCutDX77t30J-1" value="" style="shape=cube;whiteSpace=wrap;html=1;boundedLbl=1;backgroundOutline=1;darkOpacity=0.05;darkOpacity2=0.1;" parent="1" vertex="1">
          <mxGeometry x="190" y="220" width="170" height="160" as="geometry" />
        </mxCell>
        <mxCell id="xguwrIu2RCutDX77t30J-2" value="" style="shape=cube;whiteSpace=wrap;html=1;boundedLbl=1;backgroundOutline=1;darkOpacity=0.05;darkOpacity2=0.1;" parent="1" vertex="1">
          <mxGeometry x="220" y="250" width="170" height="160" as="geometry" />
        </mxCell>
        <mxCell id="xguwrIu2RCutDX77t30J-3" value="" style="shape=cube;whiteSpace=wrap;html=1;boundedLbl=1;backgroundOutline=1;darkOpacity=0.05;darkOpacity2=0.1;" parent="1" vertex="1">
          <mxGeometry x="250" y="280" width="170" height="160" as="geometry" />
        </mxCell>
        <mxCell id="xguwrIu2RCutDX77t30J-4" value="Instrument Layer" style="text;html=1;strokeColor=none;fillColor=none;align=center;verticalAlign=middle;whiteSpace=wrap;rounded=0;" parent="1" vertex="1">
          <mxGeometry x="215" y="210" width="120" height="37" as="geometry" />
        </mxCell>
        <mxCell id="xguwrIu2RCutDX77t30J-5" value="Instrument" style="shape=cube;whiteSpace=wrap;html=1;boundedLbl=1;backgroundOutline=1;darkOpacity=0.05;darkOpacity2=0.1;" parent="1" vertex="1">
          <mxGeometry x="110" y="320" width="80" height="60" as="geometry" />
        </mxCell>
        <mxCell id="xguwrIu2RCutDX77t30J-6" value="&lt;span&gt;Instrument&lt;/span&gt;" style="shape=cube;whiteSpace=wrap;html=1;boundedLbl=1;backgroundOutline=1;darkOpacity=0.05;darkOpacity2=0.1;" parent="1" vertex="1">
          <mxGeometry x="110" y="270" width="80" height="60" as="geometry" />
        </mxCell>
        <mxCell id="xguwrIu2RCutDX77t30J-7" value="&lt;span&gt;Instrument&lt;/span&gt;" style="shape=cube;whiteSpace=wrap;html=1;boundedLbl=1;backgroundOutline=1;darkOpacity=0.05;darkOpacity2=0.1;" parent="1" vertex="1">
          <mxGeometry x="110" y="220" width="90" height="60" as="geometry" />
        </mxCell>
        <mxCell id="xguwrIu2RCutDX77t30J-8" value="" style="shape=cube;whiteSpace=wrap;html=1;boundedLbl=1;backgroundOutline=1;darkOpacity=0.05;darkOpacity2=0.1;" parent="1" vertex="1">
          <mxGeometry x="290" y="320" width="170" height="160" as="geometry" />
        </mxCell>
        <mxCell id="xguwrIu2RCutDX77t30J-9" value="&lt;span&gt;Driver&lt;/span&gt;" style="shape=cube;whiteSpace=wrap;html=1;boundedLbl=1;backgroundOutline=1;darkOpacity=0.05;darkOpacity2=0.1;" parent="1" vertex="1">
          <mxGeometry x="160" y="250" width="80" height="60" as="geometry" />
        </mxCell>
        <mxCell id="xguwrIu2RCutDX77t30J-12" value="&lt;span&gt;VISA&lt;/span&gt;" style="shape=cube;whiteSpace=wrap;html=1;boundedLbl=1;backgroundOutline=1;darkOpacity=0.05;darkOpacity2=0.1;" parent="1" vertex="1">
          <mxGeometry x="160" y="330" width="80" height="60" as="geometry" />
        </mxCell>
        <mxCell id="xguwrIu2RCutDX77t30J-13" value="IV" style="shape=cube;whiteSpace=wrap;html=1;boundedLbl=1;backgroundOutline=1;darkOpacity=0.05;darkOpacity2=0.1;" parent="1" vertex="1">
          <mxGeometry x="190" y="300" width="80" height="60" as="geometry" />
        </mxCell>
        <mxCell id="xguwrIu2RCutDX77t30J-14" value="Pulse" style="shape=cube;whiteSpace=wrap;html=1;boundedLbl=1;backgroundOutline=1;darkOpacity=0.05;darkOpacity2=0.1;" parent="1" vertex="1">
          <mxGeometry x="190" y="380" width="80" height="60" as="geometry" />
        </mxCell>
        <mxCell id="xguwrIu2RCutDX77t30J-20" value="&lt;font style=&quot;font-size: 18px&quot;&gt;&lt;b&gt;.&lt;br&gt;.&lt;br&gt;.&lt;/b&gt;&lt;/font&gt;" style="text;html=1;strokeColor=none;fillColor=none;align=center;verticalAlign=middle;whiteSpace=wrap;rounded=0;sketch=0;" parent="1" vertex="1">
          <mxGeometry x="200" y="460" width="40" height="20" as="geometry" />
        </mxCell>
        <mxCell id="xguwrIu2RCutDX77t30J-21" value="&lt;font style=&quot;font-size: 18px&quot;&gt;&lt;b&gt;.&lt;br&gt;.&lt;br&gt;.&lt;/b&gt;&lt;/font&gt;" style="text;html=1;strokeColor=none;fillColor=none;align=center;verticalAlign=middle;whiteSpace=wrap;rounded=0;sketch=0;" parent="1" vertex="1">
          <mxGeometry x="130" y="380" width="40" height="70" as="geometry" />
        </mxCell>
        <mxCell id="isx5sUggE16lWCnbfGK9-1" value="Environment Layer" style="text;html=1;strokeColor=none;fillColor=none;align=center;verticalAlign=middle;whiteSpace=wrap;rounded=0;" parent="1" vertex="1">
          <mxGeometry x="240" y="240" width="120" height="37" as="geometry" />
        </mxCell>
        <mxCell id="isx5sUggE16lWCnbfGK9-2" value="Service Layer" style="text;html=1;strokeColor=none;fillColor=none;align=center;verticalAlign=middle;whiteSpace=wrap;rounded=0;" parent="1" vertex="1">
          <mxGeometry x="275" y="270" width="120" height="37" as="geometry" />
        </mxCell>
        <mxCell id="isx5sUggE16lWCnbfGK9-3" value="User Layer" style="text;html=1;strokeColor=none;fillColor=none;align=center;verticalAlign=middle;whiteSpace=wrap;rounded=0;" parent="1" vertex="1">
          <mxGeometry x="315" y="311.5" width="120" height="37" as="geometry" />
        </mxCell>
        <mxCell id="T4pqEkE_ISK7TvFwVSz0-1" value="" style="aspect=fixed;perimeter=ellipsePerimeter;html=1;align=center;shadow=0;dashed=0;spacingTop=3;image;image=img/lib/active_directory/internet_cloud.svg;rounded=0;fillColor=none;" parent="1" vertex="1">
          <mxGeometry x="330" y="540" width="50" height="31.5" as="geometry" />
        </mxCell>
      </root>
    </mxGraphModel>
  </diagram>
  <diagram id="wgSSDijlNZBA8a-8Ddck" name="#2">
    <mxGraphModel dx="1079" dy="638" grid="1" gridSize="10" guides="1" tooltips="1" connect="1" arrows="1" fold="1" page="1" pageScale="1" pageWidth="1169" pageHeight="827" math="0" shadow="0">
      <root>
        <mxCell id="1cQskenQi5b3R1db8J3e-0" />
        <mxCell id="1cQskenQi5b3R1db8J3e-1" parent="1cQskenQi5b3R1db8J3e-0" />
      </root>
    </mxGraphModel>
  </diagram>
  <diagram id="yjDQa0-lEQCmhNaxIRpW" name="local-instance">
    <mxGraphModel dx="1079" dy="581" grid="1" gridSize="10" guides="1" tooltips="1" connect="1" arrows="1" fold="1" page="1" pageScale="1" pageWidth="1169" pageHeight="827" math="0" shadow="0">
      <root>
        <mxCell id="6vIk-0_0GE7erLyziwpx-0" />
        <mxCell id="6vIk-0_0GE7erLyziwpx-1" parent="6vIk-0_0GE7erLyziwpx-0" />
        <mxCell id="6vIk-0_0GE7erLyziwpx-8" value="" style="endArrow=classic;startArrow=classic;html=1;entryX=0;entryY=0.5;entryDx=0;entryDy=0;" edge="1" parent="6vIk-0_0GE7erLyziwpx-1">
          <mxGeometry width="50" height="50" relative="1" as="geometry">
            <mxPoint x="360" y="570" as="sourcePoint" />
            <mxPoint x="465" y="570" as="targetPoint" />
          </mxGeometry>
        </mxCell>
        <mxCell id="QvrE2RD2fadSo2zKRBUi-0" value="Local Controller" style="aspect=fixed;perimeter=ellipsePerimeter;html=1;align=center;shadow=0;dashed=0;spacingTop=3;image;image=img/lib/active_directory/workstation_client.svg;rounded=0;fillColor=none;" vertex="1" parent="6vIk-0_0GE7erLyziwpx-1">
          <mxGeometry x="470" y="532.5" width="63.75" height="75" as="geometry" />
        </mxCell>
        <mxCell id="QvrE2RD2fadSo2zKRBUi-1" value="User" style="aspect=fixed;perimeter=ellipsePerimeter;html=1;align=center;shadow=0;dashed=0;spacingTop=3;image;image=img/lib/active_directory/user.svg;rounded=0;fillColor=none;" vertex="1" parent="6vIk-0_0GE7erLyziwpx-1">
          <mxGeometry x="330" y="530" width="25.9" height="70" as="geometry" />
        </mxCell>
        <mxCell id="QvrE2RD2fadSo2zKRBUi-2" value="" style="endArrow=classic;startArrow=classic;html=1;entryX=0;entryY=0.5;entryDx=0;entryDy=0;exitX=1;exitY=0.5;exitDx=0;exitDy=0;" edge="1" parent="6vIk-0_0GE7erLyziwpx-1" source="QvrE2RD2fadSo2zKRBUi-0">
          <mxGeometry width="50" height="50" relative="1" as="geometry">
            <mxPoint x="533.75" y="570" as="sourcePoint" />
            <mxPoint x="620" y="570" as="targetPoint" />
          </mxGeometry>
        </mxCell>
        <mxCell id="QvrE2RD2fadSo2zKRBUi-3" value="Instrument" style="aspect=fixed;perimeter=ellipsePerimeter;html=1;align=center;shadow=0;dashed=0;spacingTop=3;image;image=img/lib/active_directory/modem.svg;rounded=0;fillColor=none;" vertex="1" parent="6vIk-0_0GE7erLyziwpx-1">
          <mxGeometry x="620" y="550" width="50" height="41.5" as="geometry" />
        </mxCell>
        <mxCell id="A4Cz3q7GaoRZGgSFgL-H-0" value="" style="aspect=fixed;perimeter=ellipsePerimeter;html=1;align=center;shadow=0;dashed=0;spacingTop=3;image;image=img/lib/active_directory/modem.svg;rounded=0;fillColor=none;" vertex="1" parent="6vIk-0_0GE7erLyziwpx-1">
          <mxGeometry x="620" y="630" width="50" height="41.5" as="geometry" />
        </mxCell>
        <mxCell id="A4Cz3q7GaoRZGgSFgL-H-1" value="" style="endArrow=classic;startArrow=classic;html=1;entryX=0;entryY=0.5;entryDx=0;entryDy=0;exitX=1;exitY=1;exitDx=0;exitDy=0;" edge="1" parent="6vIk-0_0GE7erLyziwpx-1" source="QvrE2RD2fadSo2zKRBUi-0" target="A4Cz3q7GaoRZGgSFgL-H-0">
          <mxGeometry width="50" height="50" relative="1" as="geometry">
            <mxPoint x="543.75" y="580" as="sourcePoint" />
            <mxPoint x="630" y="580" as="targetPoint" />
          </mxGeometry>
        </mxCell>
        <mxCell id="Tq4GsWrqLp4t0N-cfrx5-0" value="&lt;font style=&quot;font-size: 18px&quot;&gt;&lt;b&gt;.&lt;br&gt;.&lt;br&gt;.&lt;/b&gt;&lt;/font&gt;" style="text;html=1;strokeColor=none;fillColor=none;align=center;verticalAlign=middle;whiteSpace=wrap;rounded=0;sketch=0;" vertex="1" parent="6vIk-0_0GE7erLyziwpx-1">
          <mxGeometry x="620" y="690" width="40" height="20" as="geometry" />
        </mxCell>
      </root>
    </mxGraphModel>
  </diagram>
  <diagram id="9gKp6pcTVLDg25w-rMXb" name="RDP-Instance">
    <mxGraphModel dx="1079" dy="638" grid="1" gridSize="10" guides="1" tooltips="1" connect="1" arrows="1" fold="1" page="1" pageScale="1" pageWidth="1169" pageHeight="827" math="0" shadow="0">
      <root>
        <mxCell id="wTxX-84xGvmIHkBUcNd0-0" />
        <mxCell id="wTxX-84xGvmIHkBUcNd0-1" parent="wTxX-84xGvmIHkBUcNd0-0" />
        <mxCell id="E5RRPMiXPpJCwYskWcq1-0" value="" style="aspect=fixed;perimeter=ellipsePerimeter;html=1;align=center;shadow=0;dashed=0;spacingTop=3;image;image=img/lib/active_directory/laptop_client.svg;rounded=0;fillColor=none;" parent="wTxX-84xGvmIHkBUcNd0-1" vertex="1">
          <mxGeometry x="170" y="340" width="45" height="50" as="geometry" />
        </mxCell>
        <mxCell id="E5RRPMiXPpJCwYskWcq1-1" value="" style="aspect=fixed;perimeter=ellipsePerimeter;html=1;align=center;shadow=0;dashed=0;spacingTop=3;image;image=img/lib/active_directory/user.svg;rounded=0;fillColor=none;" parent="wTxX-84xGvmIHkBUcNd0-1" vertex="1">
          <mxGeometry x="160" y="350" width="18.5" height="50" as="geometry" />
        </mxCell>
        <mxCell id="E5RRPMiXPpJCwYskWcq1-2" value="" style="aspect=fixed;perimeter=ellipsePerimeter;html=1;align=center;shadow=0;dashed=0;spacingTop=3;image;image=img/lib/active_directory/workstation_client.svg;rounded=0;fillColor=none;" parent="wTxX-84xGvmIHkBUcNd0-1" vertex="1">
          <mxGeometry x="330" y="340" width="42.5" height="50" as="geometry" />
        </mxCell>
        <mxCell id="Ad-ulTzdbA9ovB11KSfA-0" value="" style="endArrow=classic;startArrow=classic;html=1;entryX=0;entryY=0.5;entryDx=0;entryDy=0;exitX=1;exitY=0.5;exitDx=0;exitDy=0;" parent="wTxX-84xGvmIHkBUcNd0-1" source="E5RRPMiXPpJCwYskWcq1-2" edge="1">
          <mxGeometry width="50" height="50" relative="1" as="geometry">
            <mxPoint x="382" y="360" as="sourcePoint" />
            <mxPoint x="468.25" y="360" as="targetPoint" />
          </mxGeometry>
        </mxCell>
        <mxCell id="Ad-ulTzdbA9ovB11KSfA-1" value="Instruments" style="aspect=fixed;perimeter=ellipsePerimeter;html=1;align=center;shadow=0;dashed=0;spacingTop=3;image;image=img/lib/active_directory/modem.svg;rounded=0;fillColor=none;" parent="wTxX-84xGvmIHkBUcNd0-1" vertex="1">
          <mxGeometry x="468.25" y="340" width="50" height="41.5" as="geometry" />
        </mxCell>
        <mxCell id="Ad-ulTzdbA9ovB11KSfA-2" value="" style="aspect=fixed;perimeter=ellipsePerimeter;html=1;align=center;shadow=0;dashed=0;spacingTop=3;image;image=img/lib/active_directory/modem.svg;rounded=0;fillColor=none;" parent="wTxX-84xGvmIHkBUcNd0-1" vertex="1">
          <mxGeometry x="468.25" y="320" width="50" height="41.5" as="geometry" />
        </mxCell>
        <mxCell id="Ad-ulTzdbA9ovB11KSfA-4" value="&lt;font style=&quot;font-size: 18px&quot;&gt;&lt;b&gt;.&lt;br&gt;.&lt;br&gt;.&lt;/b&gt;&lt;/font&gt;" style="text;html=1;strokeColor=none;fillColor=none;align=center;verticalAlign=middle;whiteSpace=wrap;rounded=0;sketch=0;" parent="wTxX-84xGvmIHkBUcNd0-1" vertex="1">
          <mxGeometry x="478.25" y="435.75" width="40" height="20" as="geometry" />
        </mxCell>
        <mxCell id="Ad-ulTzdbA9ovB11KSfA-5" value="" style="endArrow=classic;startArrow=classic;html=1;entryX=0;entryY=0.5;entryDx=0;entryDy=0;exitX=1;exitY=0.5;exitDx=0;exitDy=0;dashed=1;" parent="wTxX-84xGvmIHkBUcNd0-1" source="E5RRPMiXPpJCwYskWcq1-0" target="E5RRPMiXPpJCwYskWcq1-2" edge="1">
          <mxGeometry width="50" height="50" relative="1" as="geometry">
            <mxPoint x="210.00103680687585" y="425.95688264046476" as="sourcePoint" />
            <mxPoint x="305.75" y="480" as="targetPoint" />
          </mxGeometry>
        </mxCell>
        <mxCell id="Ad-ulTzdbA9ovB11KSfA-6" value="RDP" style="text;html=1;strokeColor=none;fillColor=none;align=center;verticalAlign=middle;whiteSpace=wrap;rounded=0;" parent="wTxX-84xGvmIHkBUcNd0-1" vertex="1">
          <mxGeometry x="250" y="370" width="40" height="20" as="geometry" />
        </mxCell>
        <mxCell id="Ad-ulTzdbA9ovB11KSfA-7" value="" style="aspect=fixed;perimeter=ellipsePerimeter;html=1;align=center;shadow=0;dashed=0;spacingTop=3;image;image=img/lib/active_directory/internet_cloud.svg;rounded=0;fillColor=none;" parent="wTxX-84xGvmIHkBUcNd0-1" vertex="1">
          <mxGeometry x="245" y="330" width="50" height="31.5" as="geometry" />
        </mxCell>
        <mxCell id="Qtv8Hb_-3j-CmEhggXiu-0" value="" style="aspect=fixed;perimeter=ellipsePerimeter;html=1;align=center;shadow=0;dashed=0;spacingTop=3;image;image=img/lib/active_directory/laptop_client.svg;rounded=0;fillColor=none;" vertex="1" parent="wTxX-84xGvmIHkBUcNd0-1">
          <mxGeometry x="175" y="410.75" width="45" height="50" as="geometry" />
        </mxCell>
        <mxCell id="Qtv8Hb_-3j-CmEhggXiu-1" value="" style="aspect=fixed;perimeter=ellipsePerimeter;html=1;align=center;shadow=0;dashed=0;spacingTop=3;image;image=img/lib/active_directory/user.svg;rounded=0;fillColor=none;" vertex="1" parent="wTxX-84xGvmIHkBUcNd0-1">
          <mxGeometry x="165" y="420.75" width="18.5" height="50" as="geometry" />
        </mxCell>
        <mxCell id="Qtv8Hb_-3j-CmEhggXiu-2" value="" style="endArrow=classic;startArrow=classic;html=1;entryX=0;entryY=0.5;entryDx=0;entryDy=0;exitX=1;exitY=0.5;exitDx=0;exitDy=0;dashed=1;" edge="1" parent="wTxX-84xGvmIHkBUcNd0-1" source="Qtv8Hb_-3j-CmEhggXiu-0">
          <mxGeometry width="50" height="50" relative="1" as="geometry">
            <mxPoint x="225" y="375" as="sourcePoint" />
            <mxPoint x="340" y="375" as="targetPoint" />
          </mxGeometry>
        </mxCell>
        <mxCell id="Qtv8Hb_-3j-CmEhggXiu-3" value="&lt;font style=&quot;font-size: 18px&quot;&gt;&lt;b&gt;.&lt;br&gt;.&lt;br&gt;.&lt;/b&gt;&lt;/font&gt;" style="text;html=1;strokeColor=none;fillColor=none;align=center;verticalAlign=middle;whiteSpace=wrap;rounded=0;sketch=0;" vertex="1" parent="wTxX-84xGvmIHkBUcNd0-1">
          <mxGeometry x="172.5" y="490" width="40" height="20" as="geometry" />
        </mxCell>
        <mxCell id="id5qqneJk2xijLkbX3QH-2" value="" style="aspect=fixed;perimeter=ellipsePerimeter;html=1;align=center;shadow=0;dashed=0;spacingTop=3;image;image=img/lib/active_directory/workstation_client.svg;rounded=0;fillColor=none;" vertex="1" parent="wTxX-84xGvmIHkBUcNd0-1">
          <mxGeometry x="340" y="440.75" width="42.5" height="50" as="geometry" />
        </mxCell>
        <mxCell id="id5qqneJk2xijLkbX3QH-3" value="" style="endArrow=classic;startArrow=classic;html=1;entryX=0;entryY=0.5;entryDx=0;entryDy=0;exitX=1;exitY=0.5;exitDx=0;exitDy=0;" edge="1" parent="wTxX-84xGvmIHkBUcNd0-1" source="id5qqneJk2xijLkbX3QH-2">
          <mxGeometry width="50" height="50" relative="1" as="geometry">
            <mxPoint x="392" y="460.75" as="sourcePoint" />
            <mxPoint x="478.25" y="460.75" as="targetPoint" />
          </mxGeometry>
        </mxCell>
        <mxCell id="id5qqneJk2xijLkbX3QH-4" value="Instruments" style="aspect=fixed;perimeter=ellipsePerimeter;html=1;align=center;shadow=0;dashed=0;spacingTop=3;image;image=img/lib/active_directory/modem.svg;rounded=0;fillColor=none;" vertex="1" parent="wTxX-84xGvmIHkBUcNd0-1">
          <mxGeometry x="478.25" y="440.75" width="50" height="41.5" as="geometry" />
        </mxCell>
        <mxCell id="id5qqneJk2xijLkbX3QH-5" value="" style="aspect=fixed;perimeter=ellipsePerimeter;html=1;align=center;shadow=0;dashed=0;spacingTop=3;image;image=img/lib/active_directory/modem.svg;rounded=0;fillColor=none;" vertex="1" parent="wTxX-84xGvmIHkBUcNd0-1">
          <mxGeometry x="478.25" y="420.75" width="50" height="41.5" as="geometry" />
        </mxCell>
        <mxCell id="id5qqneJk2xijLkbX3QH-6" value="" style="endArrow=classic;startArrow=classic;html=1;entryX=0;entryY=0.5;entryDx=0;entryDy=0;dashed=1;" edge="1" parent="wTxX-84xGvmIHkBUcNd0-1">
          <mxGeometry width="50" height="50" relative="1" as="geometry">
            <mxPoint x="225" y="440" as="sourcePoint" />
            <mxPoint x="340" y="462.25" as="targetPoint" />
          </mxGeometry>
        </mxCell>
        <mxCell id="id5qqneJk2xijLkbX3QH-7" value="" style="endArrow=classic;startArrow=classic;html=1;entryX=0;entryY=0;entryDx=0;entryDy=0;exitX=1;exitY=0.75;exitDx=0;exitDy=0;dashed=1;" edge="1" parent="wTxX-84xGvmIHkBUcNd0-1" source="E5RRPMiXPpJCwYskWcq1-0" target="id5qqneJk2xijLkbX3QH-2">
          <mxGeometry width="50" height="50" relative="1" as="geometry">
            <mxPoint x="240" y="445.25" as="sourcePoint" />
            <mxPoint x="355" y="445.25" as="targetPoint" />
          </mxGeometry>
        </mxCell>
        <mxCell id="id5qqneJk2xijLkbX3QH-8" value="&lt;font style=&quot;font-size: 18px&quot;&gt;&lt;b&gt;.&lt;br&gt;.&lt;br&gt;.&lt;/b&gt;&lt;/font&gt;" style="text;html=1;strokeColor=none;fillColor=none;align=center;verticalAlign=middle;whiteSpace=wrap;rounded=0;sketch=0;" vertex="1" parent="wTxX-84xGvmIHkBUcNd0-1">
          <mxGeometry x="340" y="500" width="40" height="20" as="geometry" />
        </mxCell>
      </root>
    </mxGraphModel>
  </diagram>
  <diagram id="k_-6VctVGh2ldteUW1LC" name="RPC-Instance">
    <mxGraphModel dx="1079" dy="638" grid="1" gridSize="10" guides="1" tooltips="1" connect="1" arrows="1" fold="1" page="1" pageScale="1" pageWidth="1169" pageHeight="827" math="0" shadow="0">
      <root>
        <mxCell id="_RivvUYA_cYBJsvx6gUg-0" />
        <mxCell id="_RivvUYA_cYBJsvx6gUg-1" parent="_RivvUYA_cYBJsvx6gUg-0" />
        <mxCell id="mHgGj8xV4gIOlmIxgb7G-0" value="" style="aspect=fixed;perimeter=ellipsePerimeter;html=1;align=center;shadow=0;dashed=0;spacingTop=3;image;image=img/lib/active_directory/laptop_client.svg;rounded=0;fillColor=none;" vertex="1" parent="_RivvUYA_cYBJsvx6gUg-1">
          <mxGeometry x="180" y="260" width="45" height="50" as="geometry" />
        </mxCell>
        <mxCell id="mHgGj8xV4gIOlmIxgb7G-1" value="" style="aspect=fixed;perimeter=ellipsePerimeter;html=1;align=center;shadow=0;dashed=0;spacingTop=3;image;image=img/lib/active_directory/user.svg;rounded=0;fillColor=none;" vertex="1" parent="_RivvUYA_cYBJsvx6gUg-1">
          <mxGeometry x="170" y="270" width="18.5" height="50" as="geometry" />
        </mxCell>
        <mxCell id="mHgGj8xV4gIOlmIxgb7G-3" value="" style="aspect=fixed;perimeter=ellipsePerimeter;html=1;align=center;shadow=0;dashed=0;spacingTop=3;image;image=img/lib/active_directory/user.svg;rounded=0;fillColor=none;" vertex="1" parent="_RivvUYA_cYBJsvx6gUg-1">
          <mxGeometry x="170" y="330" width="18.5" height="50" as="geometry" />
        </mxCell>
        <mxCell id="mHgGj8xV4gIOlmIxgb7G-4" value="&lt;font style=&quot;font-size: 18px&quot;&gt;&lt;b&gt;.&lt;br&gt;.&lt;br&gt;.&lt;/b&gt;&lt;/font&gt;" style="text;html=1;strokeColor=none;fillColor=none;align=center;verticalAlign=middle;whiteSpace=wrap;rounded=0;sketch=0;" vertex="1" parent="_RivvUYA_cYBJsvx6gUg-1">
          <mxGeometry x="159.25" y="404" width="40" height="20" as="geometry" />
        </mxCell>
        <mxCell id="mHgGj8xV4gIOlmIxgb7G-5" value="" style="aspect=fixed;perimeter=ellipsePerimeter;html=1;align=center;shadow=0;dashed=0;spacingTop=3;image;image=img/lib/active_directory/generic_server.svg;" vertex="1" parent="_RivvUYA_cYBJsvx6gUg-1">
          <mxGeometry x="310" y="260" width="28.000000000000004" height="50" as="geometry" />
        </mxCell>
        <mxCell id="mHgGj8xV4gIOlmIxgb7G-6" value="" style="aspect=fixed;perimeter=ellipsePerimeter;html=1;align=center;shadow=0;dashed=0;spacingTop=3;image;image=img/lib/active_directory/shadowed_router.svg;" vertex="1" parent="_RivvUYA_cYBJsvx6gUg-1">
          <mxGeometry x="430" y="260" width="41" height="50" as="geometry" />
        </mxCell>
        <mxCell id="mHgGj8xV4gIOlmIxgb7G-8" value="" style="endArrow=classic;startArrow=classic;html=1;entryX=0;entryY=0.5;entryDx=0;entryDy=0;exitX=1;exitY=0.5;exitDx=0;exitDy=0;dashed=1;" edge="1" parent="_RivvUYA_cYBJsvx6gUg-1" source="mHgGj8xV4gIOlmIxgb7G-0" target="mHgGj8xV4gIOlmIxgb7G-5">
          <mxGeometry width="50" height="50" relative="1" as="geometry">
            <mxPoint x="240" y="320" as="sourcePoint" />
            <mxPoint x="290" y="270" as="targetPoint" />
          </mxGeometry>
        </mxCell>
        <mxCell id="mHgGj8xV4gIOlmIxgb7G-9" value="RPC" style="text;html=1;strokeColor=none;fillColor=none;align=center;verticalAlign=middle;whiteSpace=wrap;rounded=0;" vertex="1" parent="_RivvUYA_cYBJsvx6gUg-1">
          <mxGeometry x="250" y="290" width="40" height="20" as="geometry" />
        </mxCell>
        <mxCell id="9gV5zurTCquHYslxS0yK-0" value="" style="aspect=fixed;perimeter=ellipsePerimeter;html=1;align=center;shadow=0;dashed=0;spacingTop=3;image;image=img/lib/active_directory/internet_cloud.svg;rounded=0;fillColor=none;" vertex="1" parent="_RivvUYA_cYBJsvx6gUg-1">
          <mxGeometry x="245" y="250" width="50" height="31.5" as="geometry" />
        </mxCell>
        <mxCell id="9gV5zurTCquHYslxS0yK-1" value="" style="endArrow=classic;startArrow=classic;html=1;entryX=0;entryY=0.5;entryDx=0;entryDy=0;exitX=1;exitY=0.5;exitDx=0;exitDy=0;" edge="1" parent="_RivvUYA_cYBJsvx6gUg-1" source="mHgGj8xV4gIOlmIxgb7G-5" target="mHgGj8xV4gIOlmIxgb7G-6">
          <mxGeometry width="50" height="50" relative="1" as="geometry">
            <mxPoint x="350" y="360" as="sourcePoint" />
            <mxPoint x="400" y="310" as="targetPoint" />
          </mxGeometry>
        </mxCell>
        <mxCell id="9gV5zurTCquHYslxS0yK-2" value="" style="aspect=fixed;perimeter=ellipsePerimeter;html=1;align=center;shadow=0;dashed=0;spacingTop=3;image;image=img/lib/active_directory/generic_server.svg;" vertex="1" parent="_RivvUYA_cYBJsvx6gUg-1">
          <mxGeometry x="310" y="330" width="28.000000000000004" height="50" as="geometry" />
        </mxCell>
        <mxCell id="9gV5zurTCquHYslxS0yK-3" value="" style="aspect=fixed;perimeter=ellipsePerimeter;html=1;align=center;shadow=0;dashed=0;spacingTop=3;image;image=img/lib/active_directory/shadowed_router.svg;" vertex="1" parent="_RivvUYA_cYBJsvx6gUg-1">
          <mxGeometry x="430" y="330" width="41" height="50" as="geometry" />
        </mxCell>
        <mxCell id="9gV5zurTCquHYslxS0yK-4" value="" style="endArrow=classic;startArrow=classic;html=1;entryX=0;entryY=0.5;entryDx=0;entryDy=0;exitX=1;exitY=0.5;exitDx=0;exitDy=0;" edge="1" parent="_RivvUYA_cYBJsvx6gUg-1" source="9gV5zurTCquHYslxS0yK-2" target="9gV5zurTCquHYslxS0yK-3">
          <mxGeometry width="50" height="50" relative="1" as="geometry">
            <mxPoint x="350" y="430" as="sourcePoint" />
            <mxPoint x="400" y="380" as="targetPoint" />
          </mxGeometry>
        </mxCell>
        <mxCell id="9gV5zurTCquHYslxS0yK-5" value="&lt;font style=&quot;font-size: 18px&quot;&gt;&lt;b&gt;.&lt;br&gt;.&lt;br&gt;.&lt;/b&gt;&lt;/font&gt;" style="text;html=1;strokeColor=none;fillColor=none;align=center;verticalAlign=middle;whiteSpace=wrap;rounded=0;sketch=0;" vertex="1" parent="_RivvUYA_cYBJsvx6gUg-1">
          <mxGeometry x="304" y="394" width="40" height="20" as="geometry" />
        </mxCell>
        <mxCell id="9gV5zurTCquHYslxS0yK-6" value="" style="endArrow=classic;startArrow=classic;html=1;entryX=0;entryY=0.5;entryDx=0;entryDy=0;exitX=1;exitY=0.5;exitDx=0;exitDy=0;dashed=1;" edge="1" parent="_RivvUYA_cYBJsvx6gUg-1" target="9gV5zurTCquHYslxS0yK-2">
          <mxGeometry width="50" height="50" relative="1" as="geometry">
            <mxPoint x="219" y="299.5" as="sourcePoint" />
            <mxPoint x="304" y="299.5" as="targetPoint" />
          </mxGeometry>
        </mxCell>
      </root>
    </mxGraphModel>
  </diagram>
</mxfile>
